<svg width="199" height="238" viewBox="0 0 199 238" fill="none" xmlns="http://www.w3.org/2000/svg">
<path fill-rule="evenodd" clip-rule="evenodd" d="M14.5224 180.1C-1.23543 154.74 -1.64979 137.799 1.65899 119.873C6.74098 92.3517 7.20104 94.6841 7.20104 94.6841C6.25655 117.892 15.7502 125.655 31.6817 139.695C31.6817 139.695 22.904 101.449 28.2176 88.154C33.5281 74.8619 55.2332 50.375 55.2332 50.375C54.4136 67.5229 64.7664 76.251 64.4709 72.9966C68.3616 35.2482 82.6204 18.6956 114.352 0C108.076 25.1707 102.516 58.0682 135.134 67.6328C134.897 61.8873 144.378 42.6788 145.758 43.1459C146.962 60.7608 168.496 72.6608 174.855 100.753C188.078 98.2681 184.827 81.1569 182.703 71.3664C195.929 91.1763 198.452 103.797 198.955 126.431C199.403 146.625 196.773 174.898 179.931 195.437C173.006 203.884 166.123 211.184 159.295 217.396C161.102 204.922 154.003 190.034 145.81 181.077C145.81 181.077 136.377 193.074 127.584 195.666C147.215 159.517 133.517 109.961 95.7154 117.806C95.7154 117.806 104.374 125.902 106.452 134.927C108.53 143.951 98.4849 153.323 90.9807 163.388C83.4766 173.454 86.0206 182.359 86.0206 182.359C80.052 180.115 78.7693 160.9 84.7532 152.511C43.2167 173.481 50.4558 205.716 71.7009 238C51.4735 228.432 32.2972 208.708 14.5224 180.1V180.1Z" fill="#FECA12"/>
</svg>
