<svg width="107" height="163" viewBox="0 0 107 163" fill="none" xmlns="http://www.w3.org/2000/svg">
<path fill-rule="evenodd" clip-rule="evenodd" d="M0 16.9067C0 9.58707 5.62232 3.2261 12.9041 2.31588L16.0028 1.92855C36.5751 -0.642992 69.5201 -0.642705 90.0901 1.92855L93.1888 2.31588C100.448 3.22325 106.093 9.58943 106.093 16.9067C106.093 41.8873 98.388 53.5668 80.2545 66.6675C71.7266 73.0166 69.4268 75.8894 69.4268 81.2574C69.4268 86.6254 71.7266 89.4983 80.158 95.7765C98.383 108.944 106.093 120.57 106.093 145.335C106.093 152.655 100.471 159.016 93.1888 159.926L92.8702 159.966C70.7608 162.729 35.3315 162.729 13.2227 159.966L12.9041 159.926C5.64514 159.018 0 152.652 0 145.335C0 120.57 7.70989 108.944 25.935 95.7765C26.0428 95.6842 26.0428 95.6842 26.4065 95.4001C34.6574 88.9561 36.6661 86.3192 36.6661 80.9842C36.6661 75.6162 34.3663 72.7434 25.8384 66.3944C7.70989 53.2972 0 41.6715 0 16.9067ZM45.0419 80.9842C45.0419 91.9115 37.8119 97.102 30.8402 102.566C20.2535 110.215 8.37576 119.23 8.37576 145.335C8.37576 148.421 10.8683 151.23 13.943 151.615L14.2616 151.655C35.6797 154.332 70.411 154.332 91.8313 151.655L92.1499 151.615C95.2519 151.227 97.7172 148.419 97.7172 145.335C97.7172 119.23 85.8394 110.215 75.2527 102.566C68.281 97.3752 61.051 91.9115 61.051 81.2574C61.051 70.6033 68.281 65.1397 75.2527 59.9492C85.8394 52.3001 97.7172 43.2851 97.7172 16.9067C97.7172 13.8208 95.2246 11.0113 92.1499 10.627L89.0512 10.2396C69.1736 7.75492 36.9266 7.75401 17.0417 10.2396L13.943 10.627C10.8411 11.0147 8.37576 13.8228 8.37576 16.9067C8.37576 43.012 20.2535 52.027 30.8402 59.6761C37.8119 64.8665 45.0419 70.3302 45.0419 80.9842ZM86.6416 36.5078C88.1647 36.7421 88.986 38.1117 88.4673 39.5489C88.4673 39.5489 88.1651 40.5123 87.7314 41.401C83.9539 49.1409 79.5196 51.8974 72.0406 57.3011C60.1507 66.1524 55.5253 71.9303 55.8964 82.9987C55.8431 84.1969 55.8952 83.0269 55.8952 83.0269C55.8959 84.5532 54.6572 85.7906 53.1045 85.7906C51.5626 85.7906 50.3355 84.5214 50.3138 83.0269C50.3138 83.0269 50.3659 84.1969 50.3126 82.9987C50.6838 71.9303 46.0584 66.1524 34.1684 57.3011C26.6895 51.8974 22.2551 49.1409 18.4777 41.401C18.0439 40.5123 17.7417 39.5489 17.7417 39.5489C17.2269 38.1037 18.0589 36.7398 19.5674 36.5078L27.4051 35.302C41.5985 33.1184 64.6383 33.1226 78.8039 35.302L86.6416 36.5078Z" fill="#58DA1B"/>
</svg>
