<svg width="141" height="206" viewBox="0 0 141 206" fill="none" xmlns="http://www.w3.org/2000/svg">
<path d="M44.033 0L43.7674 9.40764C23.9908 8.92347 18.6532 13.3869 21.6713 20.8197C10.5047 23.7929 6.58993 28.8684 5.54888 35.6833C9.56702 29.9148 12.856 25.5633 18.5374 24.8107C14.7239 27.4006 13.2471 31.1637 12.4645 35.2718C18.3183 27.2394 21.9958 25.6329 26.3879 25.8678C24.4123 16.9171 36.8212 21.6893 43.4416 20.9403L43.2539 27.5172C35.7029 41.8166 27.9569 55.9005 15.8745 65.2476C22.0976 66.9143 32.8765 64.8089 34.8758 71.6685L34.5323 79.3521L13.6366 68.0288C13.3832 67.4849 13.0824 66.8923 12.8965 66.4217C12.8941 66.826 12.9034 67.2278 12.9036 67.6314L9.34836 65.7055L12.9071 67.9864C12.9667 94.4713 18.3241 119.394 7.02189 146.572L0 146.438L6.73861 147.236C6.51863 147.753 6.30521 148.27 6.07291 148.789C6.75406 148.262 7.42402 147.816 8.0913 147.395L39.7624 151.141L39.5889 157.278C31.3232 156.832 22.903 155.773 15.3575 157.904C13.1548 158.526 9.26665 159.474 13.9801 171.891C28.6671 165.576 64.5728 172.914 90.4136 175.059C96.8157 152.056 108.08 142.446 116.83 125.91C114.811 125.445 112.725 125.168 110.562 125.093C101.118 124.768 90.1854 128.254 76.7911 136.314L76.0157 125.349C91.6054 113.93 106.67 108.58 119.953 123.735C118.952 118.299 119.083 113.532 111.047 103.951C116.591 99.5337 125.142 104.424 132.903 106.87C119.732 77.7868 93.095 49.3766 69.2558 29.6215L68.2962 16.0561L68.8628 29.2952C68.3838 28.8993 67.898 28.4839 67.4216 28.0959C67.902 28.9607 68.4143 29.7584 68.9194 30.5685L69.8471 52.2504C69.3462 51.9487 68.8427 51.6544 68.3138 51.4098C68.8746 52.4693 69.4134 53.5285 69.9498 54.5884L72.5843 116.005C72.3237 116.421 72.0701 116.835 71.7946 117.25C72.075 116.972 72.3367 116.754 72.6055 116.512L73.0694 127.296C72.8284 127.57 72.6181 127.833 72.3612 128.113C72.6011 127.924 72.8403 127.753 73.0801 127.566L73.5405 138.343C71.2058 139.831 68.7911 141.463 66.3061 143.221C69.7907 120.511 71.0505 101.748 67.8854 80.1335L67.5703 79.9695C64.1707 86.9239 49.5687 76.2608 44.5819 68.6606L44.575 68.0082L66.8305 79.5835C66.786 79.4809 66.7376 79.3844 66.6924 79.2818L44.5608 66.3796V66.0074C50.0025 58.3789 60.6823 65.783 66.6924 79.2818L67.2342 79.5978C71.9367 53.6768 58.294 41.196 44.2245 24.1265L44.033 0ZM67.234 79.5971C67.2231 79.6559 67.2138 79.7147 67.2013 79.7743L67.5695 79.9695C67.5913 79.9191 67.6123 79.8787 67.6333 79.8308L67.234 79.5971ZM67.634 79.8308L67.8642 79.9619C67.8399 79.8005 67.8206 79.6424 67.7962 79.4793C67.7484 79.6071 67.6869 79.7122 67.6334 79.8315L67.634 79.8308ZM67.8642 79.9619C67.8724 80.0123 67.8776 80.0754 67.8852 80.1317L70.3568 81.4158L67.8642 79.9619ZM67.202 79.7736L66.8302 79.5827C66.9251 79.8004 67.0314 80.0048 67.1241 80.225C67.1535 80.0721 67.1745 79.9267 67.2022 79.7754L67.202 79.7736ZM43.7638 9.53821L43.4522 20.5814C38.3462 14.0778 41.7921 12.2089 43.7638 9.53821ZM44.2313 24.7955C48.5028 36.3223 53.0752 49.9889 44.5181 60.7985L44.2313 24.7955ZM69.3762 31.323C74.6596 39.5925 80.7495 46.0881 81.1006 65.1904C78.0985 60.3111 74.9295 55.7701 70.9024 52.9446L69.3762 31.323ZM42.567 51.8305L42.2448 63.2852C41.5683 63.9375 40.846 64.5827 40.0529 65.2078C41.32 61.0295 42.0696 56.4261 42.567 51.8305H42.567ZM71.1964 57.1197C79.9239 75.1169 84.4199 93.215 75.049 111.654L71.1964 57.1197ZM13.9128 68.6275L34.4155 81.7601L34.1889 84.6264C26.435 88.2941 17.5347 76.038 13.9128 68.6275H13.9128ZM46.7312 97.6882C53.896 110.775 49.1912 136.174 45.1874 144.645L45.1588 141.396C49.3145 129.225 51.1578 106.547 46.731 97.6882H46.7312ZM140.835 99.8948C124.613 122.576 107.437 136.093 93.1119 177.019C56.0999 174.908 -8.76724 158.027 7.80809 192.195C11.4096 152.601 143.474 227.85 117.152 170.616C116.27 175.478 109.81 177.144 100.438 177.225C106.986 161.792 124.287 150.18 120.456 128.813L140.835 99.8948ZM77.6906 113.84C80.0426 114.045 80.0035 117.919 75.9024 123.744L75.2544 114.56C76.2137 114.038 77.0498 113.783 77.6906 113.84H77.6906ZM95.3109 130.952C70.4525 138.529 37.447 177.253 19.9928 164.092C25.5385 167.579 37.4146 165.875 45.8637 157.445C45.6726 157.448 45.4782 157.438 45.2865 157.438L45.1977 146.182C46.0388 142.583 46.9728 139.25 48.8379 138.523L65.0452 144.114C60.2063 147.589 55.0926 151.548 49.6381 156.068C66.3689 144.949 78.6525 135.036 95.3106 130.953L95.3109 130.952ZM17.3229 144.316C21.9308 144.074 26.248 145.568 30.446 147.022L9.45106 146.618C12.1757 145.151 14.7948 144.448 17.3228 144.316H17.3229ZM26.9793 180.953C15.3199 180.723 6.98855 186.141 9.3272 195.59C10.0711 198.596 12.7691 201.701 15.131 205.956C38.1577 172.848 88.345 228.156 115.881 193.114C103.133 201.089 53.794 181.484 26.9793 180.953V180.953Z" fill="#DF1515"/>
</svg>
