<svg width="276" height="170" viewBox="0 0 276 170" fill="none" xmlns="http://www.w3.org/2000/svg">
<path d="M58.1466 81.601C-16.9484 69.4778 -10.4559 140.321 27.8673 139.976C66.1904 139.632 110.489 124.348 125.543 169.049C125.428 169.049 133.242 93.7242 58.1466 81.601Z" fill="#00BDE7"/>
<path d="M217.644 81.601C142.549 93.7242 150.363 169.049 150.363 169.049C165.302 124.348 209.601 139.632 248.039 139.976C286.477 140.321 293.027 69.4778 217.644 81.601Z" fill="#00BDE7"/>
<path d="M228.216 36.0958C251.773 27.7647 239.708 -17.1084 196.616 7.08055C153.524 31.2695 174.897 75.6256 174.897 75.6256C174.093 44.9441 204.659 44.312 228.216 36.0958Z" fill="#00BDE7"/>
<path d="M120.659 30.5226C70.0975 -7.39833 47.6322 47.3572 75.958 61.8362C104.284 76.3151 142.779 82.1181 136.517 120.729C136.517 120.729 171.278 68.3287 120.659 30.5226Z" fill="#00BDE7"/>
</svg>
